<svg width="955" height="470" viewBox="0 0 955 470" fill="none" xmlns="http://www.w3.org/2000/svg">
<g id="undraw_Bus_stop_re_h8ej 1" clip-path="url(#clip0)">
<path id="Vector" d="M939.098 92.316C939.098 94.3476 939.033 96.3708 938.903 98.3699C938.159 109.924 935.239 121.234 930.298 131.704C930.257 131.794 930.216 131.883 930.176 131.964C929.948 132.452 929.713 132.932 929.469 133.411C921.969 148.481 910.498 161.218 896.291 170.247C882.085 179.276 865.683 184.256 848.855 184.648L849.773 237.177L861.678 230.903L863.807 234.951L849.862 242.289L851.48 334.946L851.561 339.822H842.435L842.524 334.946L845.295 184.656C833.1 184.482 821.06 181.887 809.876 177.021C798.692 172.155 788.587 165.116 780.146 156.311C779.561 155.71 778.992 155.092 778.424 154.475C778.399 154.45 778.383 154.426 778.366 154.41C771.33 146.74 765.64 137.937 761.537 128.373C761.626 128.478 761.724 128.568 761.813 128.673C752.538 106.989 751.908 82.5789 760.052 60.4452C768.196 38.3116 784.497 20.131 805.614 9.62989C805.931 9.47553 806.264 9.32078 806.581 9.15849C827.469 -0.902465 851.375 -2.74806 873.559 3.98756C895.744 10.7232 914.588 25.5483 926.356 45.5241C926.917 46.4665 927.462 47.4339 927.981 48.4009C935.295 61.8819 939.116 76.9792 939.098 92.316V92.316Z" fill="#F2F2F2"/>
<path id="Vector_2" d="M188.23 141.713C188.23 143.339 188.178 144.959 188.074 146.559C187.478 155.807 185.141 164.86 181.186 173.24C181.153 173.312 181.121 173.384 181.088 173.448C180.906 173.839 180.718 174.223 180.522 174.606C174.52 186.669 165.338 196.863 153.967 204.091C142.596 211.318 129.467 215.303 115.997 215.617L116.732 257.663L126.261 252.641L127.966 255.881L116.804 261.754L118.098 335.919L118.163 339.822H110.859L110.93 335.919L113.148 215.624C103.387 215.485 93.7502 213.408 84.7982 209.513C75.8463 205.618 67.7574 199.984 61.0014 192.936C60.5333 192.455 60.0778 191.961 59.6227 191.466C59.603 191.447 59.59 191.427 59.577 191.414C53.9451 185.275 49.3907 178.229 46.1061 170.574C46.1776 170.658 46.2557 170.73 46.3272 170.814C38.9032 153.458 38.3988 133.919 44.9174 116.203C51.4361 98.4869 64.484 83.9349 81.3869 75.5295C81.6403 75.406 81.9071 75.2821 82.1608 75.1522C98.8799 67.0992 118.014 65.6219 135.771 71.0133C153.528 76.4046 168.612 88.2709 178.031 104.26C178.48 105.014 178.916 105.789 179.332 106.563C185.185 117.353 188.245 129.437 188.23 141.713V141.713Z" fill="#F2F2F2"/>
<path id="Vector_3" d="M237.471 43.2771C236.53 43.4251 235.673 43.9046 235.054 44.629C234.436 45.3535 234.097 46.2751 234.098 47.2276V341.822H254.098V80.8216H694.098V342.822H714.098V48.1549C714.103 47.2173 713.777 46.3081 713.178 45.587C712.578 44.8659 711.744 44.379 710.821 44.2119C476.098 3.82157 265.572 38.8603 237.471 43.2771Z" fill="#E5E5E5"/>
<path id="Vector_4" d="M444.098 287.822V296.822H476.098V341.822H489.098V296.822H619.098V341.822H632.098V296.822H664.098V287.822H444.098Z" fill="#CBCBCB"/>
<path id="Vector_5" d="M420.098 96.8216H274.098V296.822H420.098V96.8216Z" fill="#E5E5E5"/>
<path id="Vector_6" d="M406.228 115.822H287.968V277.822H406.228V115.822Z" fill="white"/>
<path id="Vector_7" d="M562.098 80.8216H550.098V287.822H562.098V80.8216Z" fill="#E5E5E5"/>
<path id="Vector_8" d="M954 341.822H1C0.734784 341.822 0.480429 341.716 0.292892 341.529C0.105356 341.341 0 341.087 0 340.822C0 340.556 0.105356 340.302 0.292892 340.114C0.480429 339.927 0.734784 339.822 1 339.822H954C954.265 339.822 954.52 339.927 954.707 340.114C954.895 340.302 955 340.556 955 340.822C955 341.087 954.895 341.341 954.707 341.529C954.52 341.716 954.265 341.822 954 341.822Z" fill="#CCCCCC"/>
<g id="path">
<path id="mid-path" d="M543 462.822H460C459.735 462.822 459.48 462.716 459.293 462.529C459.105 462.341 459 462.087 459 461.822C459 461.556 459.105 461.302 459.293 461.114C459.48 460.927 459.735 460.822 460 460.822H543C543.265 460.822 543.52 460.927 543.707 461.114C543.895 461.302 544 461.556 544 461.822C544 462.087 543.895 462.341 543.707 462.529C543.52 462.716 543.265 462.822 543 462.822Z" fill="#CBCBCB"/>
<path id="right-path" d="M765 462.822H682C681.735 462.822 681.48 462.716 681.293 462.529C681.105 462.341 681 462.087 681 461.822C681 461.556 681.105 461.302 681.293 461.114C681.48 460.927 681.735 460.822 682 460.822H765C765.265 460.822 765.52 460.927 765.707 461.114C765.895 461.302 766 461.556 766 461.822C766 462.087 765.895 462.341 765.707 462.529C765.52 462.716 765.265 462.822 765 462.822Z" fill="#CBCBCB"/>
<path id="left-path" d="M119 462.822H36C35.7348 462.822 35.4804 462.716 35.2929 462.529C35.1054 462.341 35 462.087 35 461.822C35 461.556 35.1054 461.302 35.2929 461.114C35.4804 460.927 35.7348 460.822 36 460.822H119C119.265 460.822 119.52 460.927 119.707 461.114C119.895 461.302 120 461.556 120 461.822C120 462.087 119.895 462.341 119.707 462.529C119.52 462.716 119.265 462.822 119 462.822Z" fill="#CBCBCB"/>
</g>
<path id="Vector_9" d="M254.749 396.38H208.16L207.666 382.055C207.645 381.434 207.758 380.816 207.999 380.243C208.239 379.67 208.601 379.156 209.059 378.737C209.517 378.317 210.061 378.001 210.652 377.812C211.244 377.622 211.87 377.563 212.487 377.639L239.598 380.959H239.602C243.621 380.97 247.472 382.573 250.311 385.418C253.151 388.263 254.746 392.118 254.749 396.137V396.38Z" fill="#6C63FF"/>
<path id="Vector_10" d="M233.984 345.569H201.491C200.618 345.568 199.781 345.915 199.164 346.532C198.547 347.148 198.2 347.985 198.2 348.857V381.353C198.2 381.785 198.285 382.213 198.45 382.612C198.615 383.011 198.858 383.374 199.163 383.679C199.468 383.985 199.831 384.227 200.23 384.393C200.629 384.558 201.057 384.643 201.489 384.643H233.984C234.416 384.643 234.844 384.558 235.243 384.393C235.642 384.228 236.005 383.986 236.311 383.68C236.616 383.375 236.858 383.012 237.024 382.613C237.189 382.214 237.275 381.787 237.275 381.355V348.859C237.275 347.987 236.929 347.15 236.312 346.533C235.695 345.916 234.858 345.569 233.986 345.569H233.984Z" fill="#CCCCCC"/>
<path id="Vector_11" d="M226.666 369.866L211.325 372.854C210.414 373.03 209.472 372.838 208.703 372.32C207.934 371.802 207.403 371 207.225 370.09L206.045 364.034C205.869 363.124 206.061 362.182 206.579 361.413C207.097 360.644 207.899 360.113 208.809 359.934L224.15 356.947C225.06 356.771 226.003 356.963 226.772 357.481C227.54 357.999 228.072 358.801 228.25 359.71L229.43 365.766C229.606 366.676 229.414 367.619 228.896 368.388C228.378 369.156 227.576 369.688 226.666 369.866V369.866Z" fill="#3F3D56"/>
<path id="Vector_12" d="M223.597 362.712L211.889 364.992C211.783 365.013 211.673 365.012 211.567 364.991C211.461 364.97 211.36 364.928 211.271 364.867C211.181 364.807 211.104 364.73 211.044 364.639C210.984 364.549 210.943 364.448 210.922 364.342C210.901 364.236 210.902 364.126 210.923 364.02C210.945 363.914 210.987 363.814 211.048 363.724C211.108 363.634 211.186 363.558 211.276 363.498C211.367 363.438 211.468 363.397 211.574 363.377V363.377L223.282 361.097C223.496 361.056 223.718 361.101 223.898 361.223C224.079 361.345 224.203 361.534 224.245 361.747C224.287 361.961 224.242 362.183 224.12 362.364C223.999 362.544 223.81 362.67 223.597 362.712V362.712Z" fill="white"/>
<path id="Vector_13" d="M221.321 366.088L215.265 367.267C215.159 367.288 215.05 367.288 214.944 367.266C214.838 367.245 214.738 367.203 214.648 367.142C214.558 367.082 214.482 367.004 214.422 366.914C214.362 366.824 214.321 366.723 214.3 366.617C214.28 366.511 214.28 366.402 214.302 366.296C214.323 366.19 214.365 366.09 214.426 366C214.486 365.911 214.563 365.834 214.654 365.774C214.744 365.714 214.845 365.673 214.951 365.652L221.006 364.473C221.22 364.432 221.442 364.477 221.623 364.599C221.803 364.721 221.928 364.91 221.97 365.124C222.011 365.338 221.966 365.559 221.845 365.74C221.723 365.921 221.535 366.046 221.321 366.088V366.088Z" fill="white"/>
<path id="Vector_14" d="M237.275 348.859V353.178H198.2V348.859C198.2 347.987 198.546 347.15 199.163 346.533C199.78 345.916 200.616 345.569 201.489 345.569H233.984C234.416 345.569 234.844 345.654 235.243 345.819C235.642 345.984 236.005 346.226 236.311 346.532C236.616 346.837 236.858 347.2 237.024 347.599C237.189 347.998 237.275 348.425 237.275 348.857V348.859Z" fill="#B3B3B3"/>
<path id="Vector_15" d="M315.303 354.53C315.077 353.802 314.695 353.132 314.182 352.568C313.67 352.004 313.04 351.559 312.337 351.264C311.633 350.969 310.874 350.833 310.113 350.863C309.351 350.894 308.605 351.091 307.928 351.441L263.224 335.402L261.255 346.57L305.817 358.824C306.48 359.923 307.523 360.74 308.749 361.121C309.975 361.502 311.297 361.42 312.467 360.89C313.636 360.361 314.57 359.421 315.093 358.249C315.616 357.077 315.69 355.754 315.303 354.53H315.303Z" fill="#FFB8B8"/>
<path id="Vector_16" opacity="0.2" d="M315.303 354.53C315.077 353.802 314.695 353.132 314.182 352.568C313.67 352.004 313.04 351.559 312.337 351.264C311.633 350.969 310.874 350.833 310.113 350.863C309.351 350.894 308.605 351.091 307.928 351.441L263.224 335.402L261.255 346.57L305.817 358.824C306.48 359.923 307.523 360.74 308.749 361.121C309.975 361.502 311.297 361.42 312.467 360.89C313.636 360.361 314.57 359.421 315.093 358.249C315.616 357.077 315.69 355.754 315.303 354.53H315.303Z" fill="black"/>
<path id="Vector_17" d="M271.159 337.437L266.938 348.465C266.818 348.779 266.631 349.063 266.391 349.299C266.152 349.534 265.864 349.715 265.548 349.829C265.232 349.943 264.895 349.987 264.56 349.96C264.225 349.932 263.9 349.832 263.607 349.667L253.348 343.893C251.747 343.269 250.458 342.035 249.764 340.463C249.071 338.89 249.029 337.107 249.648 335.503C250.267 333.9 251.497 332.608 253.067 331.909C254.638 331.211 256.421 331.164 258.026 331.778L269.482 334.319C269.81 334.392 270.119 334.534 270.387 334.737C270.655 334.94 270.876 335.198 271.035 335.494C271.194 335.79 271.287 336.117 271.309 336.452C271.33 336.787 271.279 337.123 271.159 337.437Z" fill="#6C63FF"/>
<path id="Vector_18" d="M318.821 364.742L302.803 372.023L304.906 379.94C308.967 395.229 310.045 411.157 308.081 426.854V426.854L319.792 429.3L329.5 404.545L326.102 376.392L318.821 364.742Z" fill="#6C63FF"/>
<path id="Vector_19" d="M350.251 401.389C339.727 401.389 331.15 409.04 330.734 418.621H369.768C369.352 409.04 360.775 401.389 350.251 401.389Z" fill="#3F3D56"/>
<path id="Vector_20" d="M342.058 403.041C341.511 359.792 316.88 363.771 316.88 363.771C316.88 363.771 317.341 377.233 317.562 377.652C333.258 407.348 307.354 442.163 274.381 435.758C273.759 435.637 273.162 435.515 272.589 435.39C268.411 434.518 264.723 432.087 262.273 428.592C259.824 425.097 258.798 420.8 259.404 416.575C262.652 390.492 246.497 390.954 246.497 390.954H222.875L210.607 379.913C210.174 379.523 209.652 379.245 209.087 379.104C208.522 378.962 207.931 378.962 207.365 379.102C206.8 379.241 206.277 379.518 205.843 379.906C205.409 380.295 205.077 380.784 204.875 381.33L203.297 385.614C203.297 385.614 179.998 388.041 181.939 410.855H189.143C189.125 411.503 189.151 412.152 189.22 412.796L242.979 412.359C244.515 412.342 245.997 412.927 247.108 413.988C248.219 415.049 248.871 416.503 248.924 418.038C248.931 419.551 248.336 421.005 247.27 422.079C246.205 423.154 244.756 423.761 243.243 423.767C243.172 423.767 243.101 423.766 243.029 423.764L234.362 423.475C231.693 435.367 238.246 443.376 245.466 448.412C252.264 453.085 260.33 455.563 268.579 455.511H292.125C322.705 455.511 328.044 429.785 328.044 429.785C344.062 422.99 342.058 403.041 342.058 403.041Z" fill="#3F3D56"/>
<g id="right-wheel">
<path id="Vector_21" d="M348.795 469.588C363.874 469.588 376.098 457.364 376.098 442.284C376.098 427.205 363.874 414.981 348.795 414.981C333.715 414.981 321.491 427.205 321.491 442.284C321.491 457.364 333.715 469.588 348.795 469.588Z" fill="#3F3D56"/>
<path id="Vector_22" d="M348.795 448.976C352.491 448.976 355.487 445.98 355.487 442.284C355.487 438.588 352.491 435.592 348.795 435.592C345.099 435.592 342.103 438.588 342.103 442.284C342.103 445.98 345.099 448.976 348.795 448.976Z" fill="white"/>
</g>
<g id="left-wheel">
<path id="Vector_23" d="M210.942 469.588C228.3 469.588 242.371 455.516 242.371 438.158C242.371 420.8 228.3 406.729 210.942 406.729C193.584 406.729 179.512 420.8 179.512 438.158C179.512 455.516 193.584 469.588 210.942 469.588Z" fill="#3F3D56"/>
<path id="Vector_24" d="M210.942 445.862C215.196 445.862 218.645 442.413 218.645 438.158C218.645 433.904 215.196 430.455 210.942 430.455C206.687 430.455 203.239 433.904 203.239 438.158C203.239 442.413 206.687 445.862 210.942 445.862Z" fill="white"/>
</g>
<path id="Vector_25" d="M302.849 374.174L297.085 358.52C296.479 356.873 296.552 355.052 297.288 353.458C298.024 351.864 299.363 350.627 301.011 350.021L301.011 350.021L317.534 343.938C320.433 342.871 323.637 342.998 326.442 344.293C329.247 345.588 331.422 347.945 332.49 350.844L332.49 350.844C332.966 352.132 333.21 353.495 333.209 354.869C333.203 356.613 332.808 358.334 332.053 359.907C331.298 361.48 330.203 362.864 328.846 363.961C327.866 364.747 326.764 365.368 325.584 365.8L302.849 374.174Z" fill="#3F3D56"/>
<path id="Vector_26" d="M332.966 354.869C332.965 356.578 332.58 358.264 331.841 359.805C331.102 361.346 330.026 362.701 328.694 363.771C326.651 363.232 324.749 362.254 323.121 360.906C321.493 359.558 320.179 357.871 319.269 355.963C318.359 354.055 317.875 351.972 317.852 349.859C317.828 347.745 318.265 345.652 319.132 343.724C320.797 343.362 322.522 343.378 324.18 343.769C325.838 344.161 327.388 344.919 328.714 345.988C330.041 347.057 331.112 348.41 331.847 349.946C332.583 351.483 332.965 353.165 332.966 354.869V354.869Z" fill="#6C63FF"/>
<path id="Vector_27" d="M186.065 414.01C189.818 414.01 192.861 410.315 192.861 405.758C192.861 401.201 189.818 397.506 186.065 397.506C182.312 397.506 179.27 401.201 179.27 405.758C179.27 410.315 182.312 414.01 186.065 414.01Z" fill="#6C63FF"/>
<path id="Vector_28" d="M275.894 434.967H281.844L284.676 419.533L275.893 419.534L275.894 434.967Z" fill="#FFB8B8"/>
<path id="Vector_29" d="M274.375 433.025L286.095 433.024H286.095C287.076 433.024 288.047 433.217 288.953 433.592C289.859 433.968 290.683 434.518 291.376 435.211C292.07 435.905 292.62 436.728 292.995 437.634C293.371 438.54 293.564 439.511 293.564 440.492V440.735L274.376 440.736L274.375 433.025Z" fill="#2F2E41"/>
<path id="Vector_30" d="M282.801 428.633C282.732 428.633 282.662 428.629 282.592 428.623L274.357 428.023C274.023 427.992 273.702 427.885 273.417 427.71C273.132 427.536 272.89 427.298 272.712 427.015C272.533 426.732 272.422 426.412 272.386 426.079C272.351 425.747 272.392 425.41 272.508 425.096L283.529 400.334C283.608 400.113 283.64 399.879 283.624 399.645C283.607 399.411 283.543 399.183 283.434 398.975C283.325 398.765 283.174 398.581 282.989 398.433C282.804 398.286 282.59 398.18 282.361 398.121C277.178 396.767 263.881 393.159 252.37 388.939C247.438 387.13 244.332 384.517 243.138 381.171C242.69 379.754 242.535 378.261 242.682 376.782C242.828 375.304 243.275 373.87 243.993 372.569L244.071 372.437L254.902 373.421L266.644 374.42L292.377 388.219C294.533 389.385 296.171 391.32 296.964 393.64C297.758 395.959 297.648 398.492 296.658 400.735L284.794 427.338C284.622 427.723 284.343 428.051 283.989 428.28C283.635 428.51 283.223 428.633 282.801 428.633Z" fill="#2F2E41"/>
<path id="Vector_31" d="M256.785 324.431C263.37 324.431 268.707 319.093 268.707 312.509C268.707 305.925 263.37 300.587 256.785 300.587C250.201 300.587 244.864 305.925 244.864 312.509C244.864 319.093 250.201 324.431 256.785 324.431Z" fill="#FFB8B8"/>
<path id="Vector_32" d="M272.496 436.424H278.447L281.278 420.989L272.495 420.99L272.496 436.424Z" fill="#FFB8B8"/>
<path id="Vector_33" d="M270.978 434.481L282.697 434.48H282.698C283.678 434.48 284.649 434.673 285.556 435.049C286.462 435.424 287.285 435.974 287.978 436.668C288.672 437.361 289.222 438.184 289.598 439.09C289.973 439.996 290.166 440.968 290.166 441.948V442.191L270.978 442.192L270.978 434.481Z" fill="#2F2E41"/>
<path id="Vector_34" d="M279.403 430.089C279.334 430.089 279.264 430.086 279.194 430.079L270.959 429.479C270.626 429.448 270.304 429.341 270.019 429.167C269.734 428.992 269.493 428.754 269.314 428.471C269.135 428.188 269.024 427.868 268.989 427.536C268.953 427.203 268.995 426.867 269.11 426.553L280.131 401.79C280.21 401.569 280.242 401.335 280.226 401.101C280.21 400.867 280.145 400.639 280.036 400.432C279.928 400.222 279.776 400.037 279.591 399.89C279.406 399.742 279.192 399.636 278.963 399.578C273.78 398.223 260.483 394.615 248.972 390.395C244.04 388.586 240.934 385.973 239.74 382.627C239.292 381.211 239.137 379.717 239.284 378.239C239.431 376.76 239.877 375.326 240.595 374.025L240.673 373.893L251.504 374.878L263.247 375.876L288.979 389.675C291.135 390.841 292.773 392.777 293.567 395.096C294.36 397.415 294.25 399.948 293.26 402.191L281.396 428.794C281.225 429.18 280.945 429.507 280.591 429.737C280.238 429.966 279.825 430.089 279.403 430.089V430.089Z" fill="#2F2E41"/>
<path id="Vector_35" d="M260.462 331.191L247.842 326.822C247.842 326.822 239.919 332.909 243.725 348.009C245.712 355.801 245.133 364.027 242.075 371.464C241.707 372.384 241.282 373.281 240.804 374.149C240.804 374.149 254.88 391.138 267.986 378.517L262.889 354.005C262.889 354.005 270.898 337.744 260.462 331.191Z" fill="#6C63FF"/>
<path id="Vector_36" d="M258.266 324.836C256.569 322.296 255.23 318.775 257.098 316.358C258.942 313.973 262.579 314.324 265.403 313.269C269.337 311.799 271.618 307.177 270.907 303.039C270.468 300.978 269.501 299.067 268.099 297.494C266.698 295.921 264.912 294.739 262.915 294.066C258.873 292.773 254.497 293.011 250.619 294.735C248.211 295.694 246.028 297.141 244.207 298.986C242.387 300.83 240.967 303.031 240.039 305.451C239.156 307.89 238.946 310.521 239.432 313.069C239.918 315.617 241.082 317.987 242.8 319.93C246.617 323.948 252.608 325.019 258.15 324.954" fill="#2F2E41"/>
<path id="hair" d="M247.176 303.172C245.038 304.912 241.776 304.139 239.481 302.612C237.185 301.084 235.323 298.909 232.84 297.711C228.462 295.6 223.169 297.003 218.908 299.342C214.647 301.681 210.87 304.912 206.37 306.747C201.869 308.583 196.126 308.674 192.718 305.208C191.879 307.638 191.811 310.267 192.522 312.737C193.232 315.208 194.688 317.398 196.69 319.011C198.692 320.623 201.143 321.578 203.708 321.747C206.273 321.915 208.827 321.287 211.022 319.95C215.954 316.946 218.678 310.648 224.209 308.99C227.269 308.073 230.556 308.812 233.649 309.612C236.743 310.412 239.968 311.277 243.09 310.596C246.211 309.914 249.131 307.109 248.734 303.939L247.176 303.172Z" fill="#2F2E41"/>
<path id="Vector_37" d="M314.71 354.045C314.396 353.35 313.934 352.732 313.355 352.236C312.777 351.739 312.097 351.375 311.363 351.169C310.629 350.964 309.859 350.922 309.107 351.046C308.354 351.17 307.639 351.458 307.01 351.889L260.669 341.488L260.093 352.813L305.826 359.476C306.62 360.484 307.756 361.167 309.019 361.393C310.282 361.62 311.585 361.376 312.68 360.706C313.775 360.037 314.586 358.989 314.96 357.761C315.334 356.533 315.245 355.211 314.71 354.045V354.045Z" fill="#FFB8B8"/>
<path id="Vector_38" d="M268.794 342.529L265.966 353.994C265.885 354.32 265.735 354.625 265.526 354.888C265.317 355.151 265.054 355.366 264.755 355.518C264.455 355.67 264.126 355.756 263.791 355.77C263.455 355.783 263.12 355.724 262.809 355.597L251.916 351.133C250.248 350.712 248.816 349.647 247.933 348.172C247.05 346.696 246.788 344.931 247.205 343.263C247.622 341.595 248.683 340.16 250.156 339.273C251.629 338.386 253.394 338.12 255.063 338.533L266.746 339.641C267.08 339.673 267.404 339.776 267.695 339.945C267.985 340.113 268.237 340.342 268.431 340.616C268.625 340.89 268.759 341.202 268.821 341.533C268.884 341.863 268.875 342.202 268.794 342.529V342.529Z" fill="#6C63FF"/>
<path id="Vector_39" d="M309.356 363.043C311.233 363.043 312.754 361.522 312.754 359.645C312.754 357.769 311.233 356.247 309.356 356.247C307.48 356.247 305.958 357.769 305.958 359.645C305.958 361.522 307.48 363.043 309.356 363.043Z" fill="#6C63FF"/>
<path id="Vector_40" d="M403.086 220.188C401.819 230.11 397.162 239.188 392.195 247.933C392.03 248.231 391.861 248.524 391.688 248.822H340.055C339.011 248.551 337.98 248.253 336.953 247.933C331.122 246.157 325.616 243.449 320.65 239.913C301.655 226.227 294.345 200.366 297.647 177.193C299.7 162.796 306.018 148.097 318.322 140.343C325.003 136.274 332.975 134.878 340.642 136.433C340.837 136.469 341.033 136.513 341.233 136.553C347.667 138.002 353.399 141.601 356.66 147.4C362.526 157.82 359.033 170.728 356.149 182.325C353.274 193.923 351.715 207.804 360.059 216.358C358.836 212.781 358.588 208.942 359.34 205.237C360.092 201.532 361.817 198.094 364.337 195.277C366.858 192.459 370.083 190.364 373.682 189.206C377.281 188.048 381.123 187.869 384.814 188.688C385.418 188.817 386.014 188.964 386.6 189.141C388.018 189.557 389.384 190.129 390.675 190.848C400.517 196.344 404.503 209.004 403.086 220.188Z" fill="#F2F2F2"/>
<path id="Vector_41" d="M372.47 247.933C373.901 248.266 375.336 248.559 376.78 248.822H368.973C367.951 248.546 366.933 248.253 365.925 247.933C363.707 247.24 361.524 246.444 359.375 245.547C350.658 242.008 342.918 236.427 336.807 229.275C333.869 225.774 331.469 221.855 329.688 217.646C327.757 212.889 326.53 207.876 326.045 202.765C324.956 192.278 326.067 181.503 328.142 171.203C330.283 160.528 333.74 150.159 338.433 140.334C338.997 139.157 339.581 137.987 340.184 136.824C340.225 136.728 340.288 136.643 340.367 136.576C340.447 136.508 340.54 136.459 340.641 136.433C340.847 136.393 341.059 136.436 341.232 136.553C341.441 136.672 341.595 136.867 341.663 137.097C341.732 137.327 341.71 137.574 341.601 137.788C336.763 147.224 333.095 157.216 330.679 167.542C328.191 177.669 327.099 188.089 327.431 198.513C327.866 208.191 330.395 217.709 336.131 225.622C341.477 232.815 348.508 238.585 356.607 242.423C361.672 244.846 366.993 246.695 372.47 247.933Z" fill="white"/>
<path id="Vector_42" d="M389.604 248.822H387.302C387.045 248.528 386.796 248.231 386.551 247.933C381.309 241.563 377.757 233.973 376.225 225.867C374.364 215.75 375.812 205.303 380.353 196.073C381.62 193.485 383.113 191.014 384.814 188.688C385.418 188.817 386.014 188.964 386.6 189.141C380.099 197.679 376.765 208.21 377.168 218.933C377.571 229.656 381.686 239.907 388.809 247.933C389.066 248.231 389.333 248.528 389.604 248.822Z" fill="white"/>
<path id="Ellipse 97" d="M544.771 234.037C551.042 234.037 556.125 228.953 556.125 222.683C556.125 216.412 551.042 211.329 544.771 211.329C538.501 211.329 533.417 216.412 533.417 222.683C533.417 228.953 538.501 234.037 544.771 234.037Z" fill="#2F2E41"/>
<path id="Path 630" d="M516.515 319.83H511.543L509.177 300.655H516.515L516.515 319.83Z" fill="#FEB8B8"/>
<path id="Path 631" d="M507.993 318.409H517.581V324.446H501.956C501.956 323.653 502.112 322.868 502.416 322.136C502.719 321.403 503.164 320.738 503.724 320.177C504.285 319.617 504.95 319.172 505.683 318.869C506.415 318.565 507.2 318.409 507.993 318.409V318.409Z" fill="#2F2E41"/>
<path id="Path 632" d="M508.755 317.055L504.012 315.567L507.496 296.562L514.496 298.759L508.755 317.055Z" fill="#FEB8B8"/>
<path id="Path 633" d="M501.046 313.149L510.194 316.02L508.386 321.78L493.479 317.101C493.958 315.574 495.025 314.299 496.444 313.558C497.863 312.817 499.519 312.67 501.046 313.149L501.046 313.149Z" fill="#2F2E41"/>
<path id="Path 634" d="M510.372 309.403C510.155 309.403 509.94 309.364 509.736 309.288L506.078 307.917C505.667 307.761 505.326 307.463 505.116 307.078C504.907 306.692 504.843 306.244 504.936 305.815C505.857 301.674 508.996 287.579 510.714 280.018C512.752 271.05 542.483 269.384 543.747 269.317L543.851 269.312L547.196 273.513C548.404 277.397 548.021 280.427 546.057 282.519C540.326 288.62 523.216 284.834 521.176 284.355L512.082 308.229C511.949 308.574 511.715 308.872 511.41 309.081C511.105 309.291 510.743 309.403 510.373 309.403H510.372Z" fill="#2F2E41"/>
<path id="Path 635" d="M515.644 312.242C515.427 312.242 515.211 312.203 515.008 312.127L511.35 310.755C510.94 310.6 510.599 310.302 510.389 309.916C510.18 309.53 510.116 309.082 510.209 308.653C511.13 304.513 514.268 290.417 515.987 282.857C518.025 273.889 547.755 272.222 549.02 272.156L549.124 272.15L552.467 276.353C553.676 280.237 553.292 283.267 551.329 285.358C545.598 291.458 528.487 287.674 526.447 287.194L517.352 311.067C517.22 311.413 516.985 311.71 516.68 311.92C516.375 312.13 516.014 312.242 515.644 312.242L515.644 312.242Z" fill="#2F2E41"/>
<path id="Path 636" d="M505.062 253.84C505.197 254.02 505.317 254.21 505.421 254.408L525.421 256.515L528.3 252.568L534.825 256.134L529.171 265.713L504.642 259.459C504.024 260.062 503.236 260.463 502.384 260.607C501.532 260.752 500.656 260.634 499.872 260.269C499.089 259.903 498.436 259.308 497.999 258.562C497.562 257.817 497.362 256.956 497.427 256.094C497.491 255.232 497.817 254.41 498.36 253.738C498.903 253.065 499.637 252.574 500.466 252.329C501.295 252.085 502.179 252.098 503 252.368C503.821 252.638 504.541 253.151 505.063 253.84L505.062 253.84Z" fill="#FEB8B8"/>
<path id="Path 637" d="M551.539 277.961C551.25 277.96 550.965 277.891 550.708 277.759C546.708 275.725 538.921 272.204 531.7 271.467C531.453 271.442 531.213 271.367 530.997 271.245C530.781 271.122 530.593 270.956 530.444 270.757C530.293 270.556 530.185 270.325 530.127 270.081C530.069 269.836 530.062 269.581 530.106 269.334C530.758 265.726 532.253 256.541 532.06 249.179C532.003 246.916 532.719 244.7 534.088 242.897C535.457 241.094 537.399 239.811 539.595 239.258V239.258C540.917 238.909 542.259 238.644 543.614 238.465C545.171 238.268 546.754 238.438 548.234 238.962C549.714 239.487 551.051 240.35 552.137 241.484C553.223 242.618 554.029 243.99 554.49 245.491C554.95 246.992 555.053 248.58 554.789 250.128C553.501 257.757 552.203 268.412 553.331 275.851C553.383 276.184 553.342 276.525 553.212 276.836C553.081 277.148 552.868 277.417 552.594 277.614C552.288 277.838 551.918 277.96 551.539 277.961V277.961Z" fill="#6C63FF"/>
<path id="Path 638" d="M532.43 258.557C532.181 258.556 531.935 258.505 531.706 258.406L526.496 256.151C526.052 255.958 525.703 255.597 525.525 255.147C525.347 254.697 525.355 254.195 525.546 253.751L529.574 244.448C530.057 243.309 530.972 242.409 532.119 241.946C533.266 241.483 534.549 241.494 535.688 241.977C536.826 242.46 537.726 243.376 538.19 244.522C538.653 245.669 538.642 246.953 538.159 248.091L538.133 248.152L534.105 257.456C533.963 257.782 533.73 258.061 533.432 258.256C533.135 258.452 532.786 258.556 532.43 258.557Z" fill="#6C63FF"/>
<path id="Ellipse 98" d="M544.356 235.3C549.857 235.3 554.316 230.841 554.316 225.34C554.316 219.84 549.857 215.381 544.356 215.381C538.856 215.381 534.397 219.84 534.397 225.34C534.397 230.841 538.856 235.3 544.356 235.3Z" fill="#FEB8B8"/>
<path id="Path 639" d="M534.217 220.446C538.935 223.326 544.253 225.079 549.759 225.567L548.121 223.604C549.313 224.045 550.569 224.295 551.839 224.343C552.476 224.361 553.107 224.23 553.684 223.96C554.26 223.691 554.766 223.289 555.159 222.789C555.48 222.269 555.671 221.68 555.715 221.071C555.759 220.462 555.656 219.851 555.413 219.291C554.914 218.173 554.137 217.201 553.156 216.468C551.417 215.093 549.365 214.169 547.183 213.779C545 213.389 542.756 213.545 540.648 214.233C539.202 214.665 537.908 215.495 536.912 216.629C535.968 217.794 534.15 218.832 534.634 220.251L534.217 220.446Z" fill="#2F2E41"/>
<path id="Path 640" d="M545.247 212.056C547.232 210.042 549.635 208.488 552.285 207.504C553.968 206.796 555.813 206.567 557.617 206.842C558.515 206.992 559.356 207.381 560.052 207.967C560.748 208.554 561.274 209.316 561.574 210.175C561.879 211.642 561.651 213.169 560.931 214.483C560.302 215.827 559.461 217.072 558.952 218.466C558.432 219.888 558.276 221.417 558.497 222.915C558.718 224.412 559.31 225.831 560.219 227.042C561.127 228.253 562.324 229.217 563.7 229.848C565.076 230.48 566.588 230.757 568.098 230.655C566.382 231.054 564.69 231.553 563.031 232.148C561.323 232.585 559.307 232.556 558.038 231.332C556.694 230.037 556.667 227.932 556.733 226.067L557.022 217.752C557.165 216.341 557.023 214.915 556.603 213.56C556.381 212.886 555.965 212.293 555.407 211.855C554.849 211.416 554.175 211.153 553.467 211.097C552.395 211.217 551.387 211.672 550.587 212.396C549.789 213.12 548.807 213.611 547.75 213.815C546.682 213.91 545.463 213.121 545.543 212.051" fill="#2F2E41"/>
<path id="Path 641" d="M527.612 275.402C526.952 275.402 526.3 275.255 525.704 274.972C525.108 274.689 524.582 274.277 524.164 273.766C523.746 273.256 523.446 272.659 523.287 272.018C523.128 271.378 523.112 270.71 523.242 270.063C523.372 269.416 523.643 268.806 524.037 268.276C524.431 267.747 524.937 267.312 525.52 267.001C526.102 266.691 526.746 266.514 527.406 266.483C528.065 266.452 528.723 266.567 529.332 266.82V266.82C529.515 266.898 529.693 266.988 529.864 267.09L548.006 258.945L548.516 254.025L556.337 253.815L556.285 262.007C556.275 262.956 555.96 263.877 555.386 264.633C554.812 265.388 554.009 265.939 553.097 266.202L531.881 272.24C531.84 272.38 531.792 272.518 531.736 272.653C531.396 273.466 530.823 274.161 530.09 274.65C529.356 275.139 528.495 275.401 527.614 275.402L527.612 275.402Z" fill="#FEB8B8"/>
<path id="Path 642" d="M555.674 257.829C555.452 257.942 555.209 258.008 554.96 258.023L549.294 258.371C548.811 258.4 548.336 258.236 547.974 257.916C547.611 257.596 547.391 257.145 547.36 256.662L546.738 246.543C546.701 245.932 546.784 245.319 546.983 244.74C547.182 244.161 547.494 243.627 547.899 243.168C548.305 242.709 548.797 242.335 549.347 242.066C549.898 241.797 550.495 241.64 551.107 241.602C551.718 241.564 552.331 241.648 552.91 241.847C553.489 242.046 554.023 242.357 554.482 242.763C554.941 243.168 555.315 243.661 555.584 244.211C555.852 244.761 556.01 245.359 556.048 245.97L556.67 256.089C556.691 256.444 556.609 256.799 556.432 257.108C556.255 257.417 555.992 257.668 555.675 257.829H555.674Z" fill="#6C63FF"/>
<path id="Rectangle 91" d="M544.264 273.587H510.419C510.135 273.587 509.905 273.817 509.905 274.101V275.911C509.905 276.195 510.135 276.425 510.419 276.425H544.264C544.548 276.425 544.778 276.195 544.778 275.911V274.101C544.778 273.817 544.548 273.587 544.264 273.587Z" fill="#3F3D56"/>
<path id="Path 643" d="M496.9 273.79V253.92C496.901 253.221 497.179 252.551 497.673 252.057C498.167 251.563 498.837 251.285 499.536 251.284H535.626C536.324 251.285 536.995 251.563 537.489 252.057C537.983 252.551 538.261 253.221 538.261 253.92V273.79C538.261 274.489 537.983 275.159 537.489 275.653C536.995 276.147 536.324 276.425 535.626 276.426H499.536C498.837 276.425 498.167 276.147 497.673 275.653C497.179 275.159 496.901 274.489 496.9 273.79Z" fill="#3F3D56"/>
<path id="Ellipse 99" d="M518.015 266.289C519.359 266.289 520.448 265.2 520.448 263.856C520.448 262.512 519.359 261.423 518.015 261.423C516.671 261.423 515.582 262.512 515.582 263.856C515.582 265.2 516.671 266.289 518.015 266.289Z" fill="white"/>
<path id="Vector_43" d="M485.314 33.8216H462.883C462.012 33.8226 461.177 34.1689 460.562 34.7847C459.946 35.4005 459.599 36.2354 459.598 37.1062V59.537C459.599 60.4078 459.946 61.2427 460.562 61.8584C461.177 62.4742 462.012 62.8206 462.883 62.8215H465.348V64.3215C465.348 64.7194 465.506 65.1009 465.788 65.3822C466.069 65.6635 466.451 65.8215 466.848 65.8215C467.246 65.8215 467.628 65.6635 467.909 65.3822C468.19 65.1009 468.348 64.7194 468.348 64.3215V62.8215H480.598V64.3215C480.598 64.7194 480.756 65.1009 481.038 65.3822C481.319 65.6635 481.701 65.8215 482.098 65.8215C482.496 65.8215 482.878 65.6635 483.159 65.3822C483.44 65.1009 483.598 64.7194 483.598 64.3215V62.8215H485.314C486.185 62.8206 487.019 62.4742 487.635 61.8584C488.251 61.2427 488.597 60.4078 488.598 59.537V37.1062C488.597 36.2354 488.251 35.4005 487.635 34.7847C487.019 34.1689 486.185 33.8226 485.314 33.8216V33.8216Z" fill="white"/>
<path id="Vector_44" d="M485.438 36.1832H462.387V51.1651H485.438V36.1832Z" fill="#E5E5E5"/>
<path id="Vector_45" d="M466.848 60.4049C468.902 60.4049 470.566 58.7403 470.566 56.687C470.566 54.6336 468.902 52.969 466.848 52.969C464.795 52.969 463.13 54.6336 463.13 56.687C463.13 58.7403 464.795 60.4049 466.848 60.4049Z" fill="#E5E5E5"/>
<path id="Vector_46" d="M481.72 60.4049C483.774 60.4049 485.438 58.7403 485.438 56.687C485.438 54.6336 483.774 52.969 481.72 52.969C479.667 52.969 478.002 54.6336 478.002 56.687C478.002 58.7403 479.667 60.4049 481.72 60.4049Z" fill="#E5E5E5"/>
</g>
<defs>
<clipPath id="clip0">
<rect width="955" height="469.588" fill="white"/>
</clipPath>
</defs>
</svg>
